<svg width="16" height="16" viewBox="0 0 16 16" fill="none" xmlns="http://www.w3.org/2000/svg">
<path d="M13.9079 5.35395C13.9693 5.41536 14 5.50749 14 5.59961C14 5.72244 13.9693 5.78386 13.9079 5.84527L8.24566 11.5075C8.18425 11.5689 8.12283 11.5996 8 11.5996C7.90788 11.5996 7.81575 11.5689 7.75434 11.5075L2.09212 5.84527C2.03071 5.78386 2 5.72244 2 5.59961C2 5.50749 2.03071 5.41536 2.09212 5.35395L2.33779 5.10829C2.3992 5.04687 2.49132 5.01616 2.58345 5.01616C2.70628 5.01616 2.7984 5.04687 2.85982 5.10829L8 10.2792L13.1402 5.10829C13.2323 5.04687 13.3244 5.01616 13.4166 5.01616C13.5394 5.01616 13.6008 5.04687 13.6622 5.10829L13.9079 5.35395Z" fill="#112120"/>
</svg>
